<?xml version="1.0" encoding="UTF-8"?><svg xmlns:svg="http://www.w3.org/2000/svg" xmlns="http://www.w3.org/2000/svg" xmlns:xlink="http://www.w3.org/1999/xlink" version="2.0" width="1200" height="1580" ><style >
svg {
  font-family: Helvetica, Arial, sans-serif;
  font-size: 11px;
}
rect {
  stroke-linecap: butt;
  stroke-width: 3;
  stroke: #fff;
/*  stroke-opacity: 1; */
}
rect:hover {
  stroke: #fff;
/*  stroke-opacity: 1; /*
}
polygon { fill: #000; }</style><defs ><polygon id="ahead" points="0 0, -12 4, -12 -4" /><filter id="glow" x="0" y="0" ><feGaussianBlur in="SourceAlpha" stdDeviation="2" result="blurred" /><feFlood flood-color="#fff" /><feComposite operator="in" in2="blurred" /><feComponentTransfer ><feFuncA type="linear" slope="10" intercept="0" /></feComponentTransfer><feMerge ><feMergeNode /><feMergeNode in="SourceGraphic" /></feMerge></filter></defs><g ><text x="28.571428" y="20.0" text-anchor="middle" alignment-baseline="middle" fill="#000" >c6</text><text x="28.571428" y="1020.0" text-anchor="middle" alignment-baseline="middle" fill="#aaa" >c6</text><text x="85.71429" y="20.0" text-anchor="middle" alignment-baseline="middle" fill="#000" >c7</text><text x="85.71429" y="1020.0" text-anchor="middle" alignment-baseline="middle" fill="#aaa" >c7</text><text x="142.85715" y="20.0" text-anchor="middle" alignment-baseline="middle" fill="#000" >c8</text><text x="142.85715" y="1020.0" text-anchor="middle" alignment-baseline="middle" fill="#aaa" >c8</text><text x="200.0" y="20.0" text-anchor="middle" alignment-baseline="middle" fill="#000" >c9</text><text x="200.0" y="1020.0" text-anchor="middle" alignment-baseline="middle" fill="#aaa" >c9</text><text x="257.14285" y="20.0" text-anchor="middle" alignment-baseline="middle" fill="#000" >c10</text><text x="257.14285" y="1020.0" text-anchor="middle" alignment-baseline="middle" fill="#aaa" >c10</text><text x="314.2857" y="20.0" text-anchor="middle" alignment-baseline="middle" fill="#000" >c11</text><text x="314.2857" y="1020.0" text-anchor="middle" alignment-baseline="middle" fill="#aaa" >c11</text><text x="371.42856" y="20.0" text-anchor="middle" alignment-baseline="middle" fill="#000" >c12</text><text x="371.42856" y="1020.0" text-anchor="middle" alignment-baseline="middle" fill="#aaa" >c12</text><text x="428.57144" y="20.0" text-anchor="middle" alignment-baseline="middle" fill="#000" >c13</text><text x="428.57144" y="1020.0" text-anchor="middle" alignment-baseline="middle" fill="#aaa" >c13</text><text x="485.7143" y="20.0" text-anchor="middle" alignment-baseline="middle" fill="#000" >c14</text><text x="485.7143" y="1020.0" text-anchor="middle" alignment-baseline="middle" fill="#aaa" >c14</text><text x="542.8571" y="20.0" text-anchor="middle" alignment-baseline="middle" fill="#000" >c15</text><text x="542.8571" y="1020.0" text-anchor="middle" alignment-baseline="middle" fill="#aaa" >c15</text><text x="600.0" y="20.0" text-anchor="middle" alignment-baseline="middle" fill="#000" >c16</text><text x="600.0" y="1020.0" text-anchor="middle" alignment-baseline="middle" fill="#aaa" >c16</text><text x="657.1429" y="20.0" text-anchor="middle" alignment-baseline="middle" fill="#000" >c17</text><text x="657.1429" y="1020.0" text-anchor="middle" alignment-baseline="middle" fill="#aaa" >c17</text><text x="714.2857" y="20.0" text-anchor="middle" alignment-baseline="middle" fill="#000" >c18</text><text x="714.2857" y="1020.0" text-anchor="middle" alignment-baseline="middle" fill="#aaa" >c18</text><text x="771.4286" y="20.0" text-anchor="middle" alignment-baseline="middle" fill="#000" >c19</text><text x="771.4286" y="1020.0" text-anchor="middle" alignment-baseline="middle" fill="#aaa" >c19</text><text x="828.5714" y="20.0" text-anchor="middle" alignment-baseline="middle" fill="#000" >c20</text><text x="828.5714" y="1020.0" text-anchor="middle" alignment-baseline="middle" fill="#aaa" >c20</text><text x="885.7143" y="20.0" text-anchor="middle" alignment-baseline="middle" fill="#000" >c21</text><text x="885.7143" y="1020.0" text-anchor="middle" alignment-baseline="middle" fill="#aaa" >c21</text><text x="942.8571" y="20.0" text-anchor="middle" alignment-baseline="middle" fill="#000" >c22</text><text x="942.8571" y="1020.0" text-anchor="middle" alignment-baseline="middle" fill="#aaa" >c22</text><text x="1000.0" y="20.0" text-anchor="middle" alignment-baseline="middle" fill="#000" >c23</text><text x="1000.0" y="1020.0" text-anchor="middle" alignment-baseline="middle" fill="#aaa" >c23</text><text x="1057.1428" y="20.0" text-anchor="middle" alignment-baseline="middle" fill="#000" >n0</text><text x="1057.1428" y="1020.0" text-anchor="middle" alignment-baseline="middle" fill="#aaa" >n0</text><text x="1114.2858" y="20.0" text-anchor="middle" alignment-baseline="middle" fill="#000" >n1</text><text x="1114.2858" y="1020.0" text-anchor="middle" alignment-baseline="middle" fill="#aaa" >n1</text><text x="1171.4286" y="20.0" text-anchor="middle" alignment-baseline="middle" fill="#000" >n2</text><text x="1171.4286" y="1020.0" text-anchor="middle" alignment-baseline="middle" fill="#aaa" >n2</text></g><g ><line stroke="#ccc" x1="28.571428" y1="30.0" x2="28.571428" y2="1490.0" /><line stroke="#ccc" x1="85.71429" y1="30.0" x2="85.71429" y2="1490.0" /><line stroke="#ccc" x1="142.85715" y1="30.0" x2="142.85715" y2="1490.0" /><line stroke="#ccc" x1="200.0" y1="30.0" x2="200.0" y2="1490.0" /><line stroke="#ccc" x1="257.14285" y1="30.0" x2="257.14285" y2="1490.0" /><line stroke="#ccc" x1="314.2857" y1="30.0" x2="314.2857" y2="1490.0" /><line stroke="#ccc" x1="371.42856" y1="30.0" x2="371.42856" y2="1490.0" /><line stroke="#ccc" x1="428.57144" y1="30.0" x2="428.57144" y2="1490.0" /><line stroke="#ccc" x1="485.7143" y1="30.0" x2="485.7143" y2="1490.0" /><line stroke="#ccc" x1="542.8571" y1="30.0" x2="542.8571" y2="1490.0" /><line stroke="#ccc" x1="600.0" y1="30.0" x2="600.0" y2="1490.0" /><line stroke="#ccc" x1="657.1429" y1="30.0" x2="657.1429" y2="1490.0" /><line stroke="#ccc" x1="714.2857" y1="30.0" x2="714.2857" y2="1490.0" /><line stroke="#ccc" x1="771.4286" y1="30.0" x2="771.4286" y2="1490.0" /><line stroke="#ccc" x1="828.5714" y1="30.0" x2="828.5714" y2="1490.0" /><line stroke="#ccc" x1="885.7143" y1="30.0" x2="885.7143" y2="1490.0" /><line stroke="#ccc" x1="942.8571" y1="30.0" x2="942.8571" y2="1490.0" /><line stroke="#ccc" x1="1000.0" y1="30.0" x2="1000.0" y2="1490.0" /><line stroke="#ccc" x1="1057.1428" y1="30.0" x2="1057.1428" y2="1490.0" /><line stroke="#ccc" x1="1114.2858" y1="30.0" x2="1114.2858" y2="1490.0" /><line stroke="#ccc" x1="1171.4286" y1="30.0" x2="1171.4286" y2="1490.0" /></g><g ><g transform="translate(85.71429 70.0) rotate(1.1794524055046094) " ><rect x="0" y="-2.5" height="5" width="967.6343960094921" fill="#81BFFC" ><title >c7 → n0 {:echo "Please echo 61", :type "echo", :msg_id 1}</title></rect><use xlink:href="#ahead" x="971.6343960094921" y="0" /><text text-anchor="middle" x="485.81719800474605" y="-4" transform="" filter="url(#glow)" style="fill: #fff" >echo {:echo "Please echo 61"}</text><text text-anchor="middle" x="485.81719800474605" y="-4" transform="" >echo {:echo "Please echo 61"}</text></g><g transform="translate(28.571428 50.0) rotate(3.005269313202026) " ><rect x="0" y="-2.5" height="5" width="1140.431076763513" fill="#81BFFC" ><title >c6 → n2 {:echo "Please echo 33", :type "echo", :msg_id 1}</title></rect><use xlink:href="#ahead" x="1144.431076763513" y="0" /><text text-anchor="middle" x="572.2155383817565" y="-4" transform="" filter="url(#glow)" style="fill: #fff" >echo {:echo "Please echo 33"}</text><text text-anchor="middle" x="572.2155383817565" y="-4" transform="" >echo {:echo "Please echo 33"}</text></g><g transform="translate(142.85715 130.0) rotate(1.1794523036385307) " ><rect x="0" y="-2.5" height="5" width="967.6344799150511" fill="#81BFFC" ><title >c8 → n1 {:echo "Please echo 8", :type "echo", :msg_id 1}</title></rect><use xlink:href="#ahead" x="971.6344799150511" y="0" /><text text-anchor="middle" x="485.81723995752554" y="-4" transform="" filter="url(#glow)" style="fill: #fff" >echo {:echo "Please echo 8"}</text><text text-anchor="middle" x="485.81723995752554" y="-4" transform="" >echo {:echo "Please echo 8"}</text></g><g transform="translate(1057.1428 170.0) rotate(90.0) " ><rect x="0" y="-2.5" height="5" width="36.0" fill="#FF1E90" ><title >n0 → n0 {:type "error", :code 13, :text "", :msg_id 1}</title></rect><use xlink:href="#ahead" x="40.0" y="0" /><text text-anchor="middle" x="20.0" y="-4" transform="rotate(180 20.0 0)" filter="url(#glow)" style="fill: #fff" >error </text><text text-anchor="middle" x="20.0" y="-4" transform="rotate(180 20.0 0)" >error </text></g><g transform="translate(1171.4286 190.0) rotate(90.0) " ><rect x="0" y="-2.5" height="5" width="36.0" fill="#FF1E90" ><title >n2 → n2 {:type "error", :code 13, :text "", :msg_id 1}</title></rect><use xlink:href="#ahead" x="40.0" y="0" /><text text-anchor="middle" x="20.0" y="-4" transform="rotate(180 20.0 0)" filter="url(#glow)" style="fill: #fff" >error </text><text text-anchor="middle" x="20.0" y="-4" transform="rotate(180 20.0 0)" >error </text></g><g transform="translate(1114.2858 250.0) rotate(90.0) " ><rect x="0" y="-2.5" height="5" width="16.0" fill="#FF1E90" ><title >n1 → n1 {:type "error", :code 13, :text "", :msg_id 1}</title></rect><use xlink:href="#ahead" x="20.0" y="0" /><text text-anchor="middle" x="10.0" y="-4" transform="rotate(180 10.0 0)" filter="url(#glow)" style="fill: #fff" >error </text><text text-anchor="middle" x="10.0" y="-4" transform="rotate(180 10.0 0)" >error </text></g><g transform="translate(200.0 290.0) rotate(2.505092724081452) " ><rect x="0" y="-2.5" height="5" width="911.1603482506258" fill="#81BFFC" ><title >c9 → n1 {:echo "Please echo 108", :type "echo", :msg_id 1}</title></rect><use xlink:href="#ahead" x="915.1603482506258" y="0" /><text text-anchor="middle" x="457.5801741253129" y="-4" transform="" filter="url(#glow)" style="fill: #fff" >echo {:echo "Please echo 108"}</text><text text-anchor="middle" x="457.5801741253129" y="-4" transform="" >echo {:echo "Please echo 108"}</text></g><g transform="translate(257.14285 310.0) rotate(2.5050928075914194) " ><rect x="0" y="-2.5" height="5" width="911.1603177622121" fill="#81BFFC" ><title >c10 → n2 {:echo "Please echo 33", :type "echo", :msg_id 1}</title></rect><use xlink:href="#ahead" x="915.1603177622121" y="0" /><text text-anchor="middle" x="457.58015888110606" y="-4" transform="" filter="url(#glow)" style="fill: #fff" >echo {:echo "Please echo 33"}</text><text text-anchor="middle" x="457.58015888110606" y="-4" transform="" >echo {:echo "Please echo 33"}</text></g><g transform="translate(314.2857 370.0) rotate(1.5422061817073192) " ><rect x="0" y="-2.5" height="5" width="739.1262987074786" fill="#81BFFC" ><title >c11 → n0 {:echo "Please echo 80", :type "echo", :msg_id 1}</title></rect><use xlink:href="#ahead" x="743.1262987074786" y="0" /><text text-anchor="middle" x="371.5631493537393" y="-4" transform="" filter="url(#glow)" style="fill: #fff" >echo {:echo "Please echo 80"}</text><text text-anchor="middle" x="371.5631493537393" y="-4" transform="" >echo {:echo "Please echo 80"}</text></g><g transform="translate(1114.2858 410.0) rotate(90.0) " ><rect x="0" y="-2.5" height="5" width="36.0" fill="#FF1E90" ><title >n1 → n1 {:type "error", :code 13, :text "", :msg_id 2}</title></rect><use xlink:href="#ahead" x="40.0" y="0" /><text text-anchor="middle" x="20.0" y="-4" transform="rotate(180 20.0 0)" filter="url(#glow)" style="fill: #fff" >error </text><text text-anchor="middle" x="20.0" y="-4" transform="rotate(180 20.0 0)" >error </text></g><g transform="translate(1171.4286 430.0) rotate(90.0) " ><rect x="0" y="-2.5" height="5" width="36.0" fill="#FF1E90" ><title >n2 → n2 {:type "error", :code 13, :text "", :msg_id 2}</title></rect><use xlink:href="#ahead" x="40.0" y="0" /><text text-anchor="middle" x="20.0" y="-4" transform="rotate(180 20.0 0)" filter="url(#glow)" style="fill: #fff" >error </text><text text-anchor="middle" x="20.0" y="-4" transform="rotate(180 20.0 0)" >error </text></g><g transform="translate(1057.1428 490.0) rotate(90.0) " ><rect x="0" y="-2.5" height="5" width="16.0" fill="#FF1E90" ><title >n0 → n0 {:type "error", :code 13, :text "", :msg_id 2}</title></rect><use xlink:href="#ahead" x="20.0" y="0" /><text text-anchor="middle" x="10.0" y="-4" transform="rotate(180 10.0 0)" filter="url(#glow)" style="fill: #fff" >error </text><text text-anchor="middle" x="10.0" y="-4" transform="rotate(180 10.0 0)" >error </text></g><g transform="translate(371.42856 530.0) rotate(1.4320961295572647) " ><rect x="0" y="-2.5" height="5" width="796.2499914577481" fill="#81BFFC" ><title >c12 → n2 {:echo "Please echo 10", :type "echo", :msg_id 1}</title></rect><use xlink:href="#ahead" x="800.2499914577481" y="0" /><text text-anchor="middle" x="400.12499572887407" y="-4" transform="" filter="url(#glow)" style="fill: #fff" >echo {:echo "Please echo 10"}</text><text text-anchor="middle" x="400.12499572887407" y="-4" transform="" >echo {:echo "Please echo 10"}</text></g><g transform="translate(428.57144 570.0) rotate(1.8224328265797114) " ><rect x="0" y="-2.5" height="5" width="624.889481966857" fill="#81BFFC" ><title >c13 → n0 {:echo "Please echo 68", :type "echo", :msg_id 1}</title></rect><use xlink:href="#ahead" x="628.889481966857" y="0" /><text text-anchor="middle" x="314.4447409834285" y="-4" transform="" filter="url(#glow)" style="fill: #fff" >echo {:echo "Please echo 68"}</text><text text-anchor="middle" x="314.4447409834285" y="-4" transform="" >echo {:echo "Please echo 68"}</text></g><g transform="translate(485.7143 610.0) rotate(1.8224325613176005) " ><rect x="0" y="-2.5" height="5" width="624.8895734732828" fill="#81BFFC" ><title >c14 → n1 {:echo "Please echo 60", :type "echo", :msg_id 1}</title></rect><use xlink:href="#ahead" x="628.8895734732828" y="0" /><text text-anchor="middle" x="314.4447867366414" y="-4" transform="" filter="url(#glow)" style="fill: #fff" >echo {:echo "Please echo 60"}</text><text text-anchor="middle" x="314.4447867366414" y="-4" transform="" >echo {:echo "Please echo 60"}</text></g><g transform="translate(1057.1428 670.0) rotate(90.0) " ><rect x="0" y="-2.5" height="5" width="16.0" fill="#FF1E90" ><title >n0 → n0 {:type "error", :code 13, :text "", :msg_id 3}</title></rect><use xlink:href="#ahead" x="20.0" y="0" /><text text-anchor="middle" x="10.0" y="-4" transform="rotate(180 10.0 0)" filter="url(#glow)" style="fill: #fff" >error </text><text text-anchor="middle" x="10.0" y="-4" transform="rotate(180 10.0 0)" >error </text></g><g transform="translate(1171.4286 650.0) rotate(90.0) " ><rect x="0" y="-2.5" height="5" width="56.0" fill="#FF1E90" ><title >n2 → n2 {:type "error", :code 13, :text "", :msg_id 3}</title></rect><use xlink:href="#ahead" x="60.0" y="0" /><text text-anchor="middle" x="30.0" y="-4" transform="rotate(180 30.0 0)" filter="url(#glow)" style="fill: #fff" >error </text><text text-anchor="middle" x="30.0" y="-4" transform="rotate(180 30.0 0)" >error </text></g><g transform="translate(1114.2858 730.0) rotate(90.0) " ><rect x="0" y="-2.5" height="5" width="16.0" fill="#FF1E90" ><title >n1 → n1 {:type "error", :code 13, :text "", :msg_id 3}</title></rect><use xlink:href="#ahead" x="20.0" y="0" /><text text-anchor="middle" x="10.0" y="-4" transform="rotate(180 10.0 0)" filter="url(#glow)" style="fill: #fff" >error </text><text text-anchor="middle" x="10.0" y="-4" transform="rotate(180 10.0 0)" >error </text></g><g transform="translate(542.8571 770.0) rotate(2.227047005133379) " ><rect x="0" y="-2.5" height="5" width="510.67444753935115" fill="#81BFFC" ><title >c15 → n0 {:echo "Please echo 33", :type "echo", :msg_id 1}</title></rect><use xlink:href="#ahead" x="514.6744475393511" y="0" /><text text-anchor="middle" x="257.3372237696756" y="-4" transform="" filter="url(#glow)" style="fill: #fff" >echo {:echo "Please echo 33"}</text><text text-anchor="middle" x="257.3372237696756" y="-4" transform="" >echo {:echo "Please echo 33"}</text></g><g transform="translate(600.0 810.0) rotate(2.227046741094778) " ><rect x="0" y="-2.5" height="5" width="510.6745085284066" fill="#81BFFC" ><title >c16 → n1 {:echo "Please echo 117", :type "echo", :msg_id 1}</title></rect><use xlink:href="#ahead" x="514.6745085284066" y="0" /><text text-anchor="middle" x="257.3372542642033" y="-4" transform="" filter="url(#glow)" style="fill: #fff" >echo {:echo "Please echo 117"}</text><text text-anchor="middle" x="257.3372542642033" y="-4" transform="" >echo {:echo "Please echo 117"}</text></g><g transform="translate(1057.1428 850.0) rotate(90.0) " ><rect x="0" y="-2.5" height="5" width="16.0" fill="#FF1E90" ><title >n0 → n0 {:type "error", :code 13, :text "", :msg_id 4}</title></rect><use xlink:href="#ahead" x="20.0" y="0" /><text text-anchor="middle" x="10.0" y="-4" transform="rotate(180 10.0 0)" filter="url(#glow)" style="fill: #fff" >error </text><text text-anchor="middle" x="10.0" y="-4" transform="rotate(180 10.0 0)" >error </text></g><g transform="translate(1114.2858 890.0) rotate(90.0) " ><rect x="0" y="-2.5" height="5" width="16.0" fill="#FF1E90" ><title >n1 → n1 {:type "error", :code 13, :text "", :msg_id 4}</title></rect><use xlink:href="#ahead" x="20.0" y="0" /><text text-anchor="middle" x="10.0" y="-4" transform="rotate(180 10.0 0)" filter="url(#glow)" style="fill: #fff" >error </text><text text-anchor="middle" x="10.0" y="-4" transform="rotate(180 10.0 0)" >error </text></g><g transform="translate(657.1429 930.0) rotate(2.227047005133379) " ><rect x="0" y="-2.5" height="5" width="510.67444753935115" fill="#81BFFC" ><title >c17 → n2 {:echo "Please echo 46", :type "echo", :msg_id 1}</title></rect><use xlink:href="#ahead" x="514.6744475393511" y="0" /><text text-anchor="middle" x="257.3372237696756" y="-4" transform="" filter="url(#glow)" style="fill: #fff" >echo {:echo "Please echo 46"}</text><text text-anchor="middle" x="257.3372237696756" y="-4" transform="" >echo {:echo "Please echo 46"}</text></g><g transform="translate(1171.4286 970.0) rotate(90.0) " ><rect x="0" y="-2.5" height="5" width="16.0" fill="#FF1E90" ><title >n2 → n2 {:type "error", :code 13, :text "", :msg_id 4}</title></rect><use xlink:href="#ahead" x="20.0" y="0" /><text text-anchor="middle" x="10.0" y="-4" transform="rotate(180 10.0 0)" filter="url(#glow)" style="fill: #fff" >error </text><text text-anchor="middle" x="10.0" y="-4" transform="rotate(180 10.0 0)" >error </text></g><g transform="translate(714.2857 1010.0) rotate(2.8624047900698124) " ><rect x="0" y="-2.5" height="5" width="396.49974884902076" fill="#81BFFC" ><title >c18 → n1 {:echo "Please echo 92", :type "echo", :msg_id 1}</title></rect><use xlink:href="#ahead" x="400.49974884902076" y="0" /><text text-anchor="middle" x="200.24987442451038" y="-4" transform="" filter="url(#glow)" style="fill: #fff" >echo {:echo "Please echo 92"}</text><text text-anchor="middle" x="200.24987442451038" y="-4" transform="" >echo {:echo "Please echo 92"}</text></g><g transform="translate(771.4286 1050.0) rotate(4.004173671510535) " ><rect x="0" y="-2.5" height="5" width="282.4133781206053" fill="#81BFFC" ><title >c19 → n0 {:echo "Please echo 45", :type "echo", :msg_id 1}</title></rect><use xlink:href="#ahead" x="286.4133781206053" y="0" /><text text-anchor="middle" x="143.20668906030264" y="-4" transform="" filter="url(#glow)" style="fill: #fff" >echo {:echo "Please echo 45"}</text><text text-anchor="middle" x="143.20668906030264" y="-4" transform="" >echo {:echo "Please echo 45"}</text></g><g transform="translate(828.5714 1090.0) rotate(3.338470204925741) " ><rect x="0" y="-2.5" height="5" width="339.4400156125969" fill="#81BFFC" ><title >c20 → n2 {:echo "Please echo 75", :type "echo", :msg_id 1}</title></rect><use xlink:href="#ahead" x="343.4400156125969" y="0" /><text text-anchor="middle" x="171.72000780629844" y="-4" transform="" filter="url(#glow)" style="fill: #fff" >echo {:echo "Please echo 75"}</text><text text-anchor="middle" x="171.72000780629844" y="-4" transform="" >echo {:echo "Please echo 75"}</text></g><g transform="translate(1114.2858 1130.0) rotate(90.0) " ><rect x="0" y="-2.5" height="5" width="16.0" fill="#FF1E90" ><title >n1 → n1 {:type "error", :code 13, :text "", :msg_id 5}</title></rect><use xlink:href="#ahead" x="20.0" y="0" /><text text-anchor="middle" x="10.0" y="-4" transform="rotate(180 10.0 0)" filter="url(#glow)" style="fill: #fff" >error </text><text text-anchor="middle" x="10.0" y="-4" transform="rotate(180 10.0 0)" >error </text></g><g transform="translate(1057.1428 1170.0) rotate(90.0) " ><rect x="0" y="-2.5" height="5" width="16.0" fill="#FF1E90" ><title >n0 → n0 {:type "error", :code 13, :text "", :msg_id 5}</title></rect><use xlink:href="#ahead" x="20.0" y="0" /><text text-anchor="middle" x="10.0" y="-4" transform="rotate(180 10.0 0)" filter="url(#glow)" style="fill: #fff" >error </text><text text-anchor="middle" x="10.0" y="-4" transform="rotate(180 10.0 0)" >error </text></g><g transform="translate(1171.4286 1210.0) rotate(90.0) " ><rect x="0" y="-2.5" height="5" width="16.0" fill="#FF1E90" ><title >n2 → n2 {:type "error", :code 13, :text "", :msg_id 5}</title></rect><use xlink:href="#ahead" x="20.0" y="0" /><text text-anchor="middle" x="10.0" y="-4" transform="rotate(180 10.0 0)" filter="url(#glow)" style="fill: #fff" >error </text><text text-anchor="middle" x="10.0" y="-4" transform="rotate(180 10.0 0)" >error </text></g><g transform="translate(885.7143 1250.0) rotate(5.000643648597611) " ><rect x="0" y="-2.5" height="5" width="225.44480357818634" fill="#81BFFC" ><title >c21 → n1 {:echo "Please echo 86", :type "echo", :msg_id 1}</title></rect><use xlink:href="#ahead" x="229.44480357818634" y="0" /><text text-anchor="middle" x="114.72240178909317" y="-4" transform="" filter="url(#glow)" style="fill: #fff" >echo {:echo "Please echo 86"}</text><text text-anchor="middle" x="114.72240178909317" y="-4" transform="" >echo {:echo "Please echo 86"}</text></g><g transform="translate(942.8571 1290.0) rotate(9.92624365102758) " ><rect x="0" y="-2.5" height="5" width="228.04507727817133" fill="#81BFFC" ><title >c22 → n2 {:echo "Please echo 115", :type "echo", :msg_id 1}</title></rect><use xlink:href="#ahead" x="232.04507727817133" y="0" /><text text-anchor="middle" x="116.02253863908567" y="-4" transform="" filter="url(#glow)" style="fill: #fff" >echo {:echo "Please echo 115"}</text><text text-anchor="middle" x="116.02253863908567" y="-4" transform="" >echo {:echo "Please echo 115"}</text></g><g transform="translate(1000.0 1310.0) rotate(34.992036627691554) " ><rect x="0" y="-2.5" height="5" width="65.75171780308216" fill="#81BFFC" ><title >c23 → n0 {:echo "Please echo 41", :type "echo", :msg_id 1}</title></rect><use xlink:href="#ahead" x="69.75171780308216" y="0" /><text text-anchor="middle" x="34.87585890154108" y="-4" transform="" filter="url(#glow)" style="fill: #fff" >echo {:echo "Please echo 41"}</text><text text-anchor="middle" x="34.87585890154108" y="-4" transform="" >echo {:echo "Please echo 41"}</text></g><g transform="translate(1171.4286 1370.0) rotate(90.0) " ><rect x="0" y="-2.5" height="5" width="56.0" fill="#FF1E90" ><title >n2 → n2 {:type "error", :code 13, :text "", :msg_id 6}</title></rect><use xlink:href="#ahead" x="60.0" y="0" /><text text-anchor="middle" x="30.0" y="-4" transform="rotate(180 30.0 0)" filter="url(#glow)" style="fill: #fff" >error </text><text text-anchor="middle" x="30.0" y="-4" transform="rotate(180 30.0 0)" >error </text></g><g transform="translate(1114.2858 1390.0) rotate(90.0) " ><rect x="0" y="-2.5" height="5" width="56.0" fill="#FF1E90" ><title >n1 → n1 {:type "error", :code 13, :text "", :msg_id 6}</title></rect><use xlink:href="#ahead" x="60.0" y="0" /><text text-anchor="middle" x="30.0" y="-4" transform="rotate(180 30.0 0)" filter="url(#glow)" style="fill: #fff" >error </text><text text-anchor="middle" x="30.0" y="-4" transform="rotate(180 30.0 0)" >error </text></g><g transform="translate(1057.1428 1410.0) rotate(90.0) " ><rect x="0" y="-2.5" height="5" width="56.0" fill="#FF1E90" ><title >n0 → n0 {:type "error", :code 13, :text "", :msg_id 6}</title></rect><use xlink:href="#ahead" x="60.0" y="0" /><text text-anchor="middle" x="30.0" y="-4" transform="rotate(180 30.0 0)" filter="url(#glow)" style="fill: #fff" >error </text><text text-anchor="middle" x="30.0" y="-4" transform="rotate(180 30.0 0)" >error </text></g></g></svg>