<?xml version="1.0" encoding="UTF-8"?><svg xmlns:svg="http://www.w3.org/2000/svg" xmlns="http://www.w3.org/2000/svg" xmlns:xlink="http://www.w3.org/1999/xlink" version="2.0" width="1200" height="300" ><style >
svg {
  font-family: Helvetica, Arial, sans-serif;
  font-size: 11px;
}
rect {
  stroke-linecap: butt;
  stroke-width: 3;
  stroke: #fff;
/*  stroke-opacity: 1; */
}
rect:hover {
  stroke: #fff;
/*  stroke-opacity: 1; /*
}
polygon { fill: #000; }</style><defs ><polygon id="ahead" points="0 0, -12 4, -12 -4" /><filter id="glow" x="0" y="0" ><feGaussianBlur in="SourceAlpha" stdDeviation="2" result="blurred" /><feFlood flood-color="#fff" /><feComposite operator="in" in2="blurred" /><feComponentTransfer ><feFuncA type="linear" slope="10" intercept="0" /></feComponentTransfer><feMerge ><feMergeNode /><feMergeNode in="SourceGraphic" /></feMerge></filter></defs><g ><text x="200.0" y="20.0" text-anchor="middle" alignment-baseline="middle" fill="#000" >c2</text><text x="600.0" y="20.0" text-anchor="middle" alignment-baseline="middle" fill="#000" >c3</text><text x="1000.0" y="20.0" text-anchor="middle" alignment-baseline="middle" fill="#000" >n0</text></g><g ><line stroke="#ccc" x1="200.0" y1="30.0" x2="200.0" y2="210.0" /><line stroke="#ccc" x1="600.0" y1="30.0" x2="600.0" y2="210.0" /><line stroke="#ccc" x1="1000.0" y1="30.0" x2="1000.0" y2="210.0" /></g><g ><g transform="translate(200.0 50.0) rotate(1.4320961841646465) " ><rect x="0" y="-2.5" height="5" width="796.2499609497023" fill="#81BFFC" ><title >c2 → n0 {:echo "Please echo 72", :type "echo", :msg_id 1}</title></rect><use xlink:href="#ahead" x="800.2499609497023" y="0" /><text text-anchor="middle" x="400.12498047485116" y="-4" transform="" filter="url(#glow)" style="fill: #fff" >echo {:echo "Please echo 72"}</text><text text-anchor="middle" x="400.12498047485116" y="-4" transform="" >echo {:echo "Please echo 72"}</text></g><g transform="translate(1000.0 90.0) rotate(90.0) " ><rect x="0" y="-2.5" height="5" width="16.0" fill="#FF1E90" ><title >n0 → n0 {:type "error", :code 13, :text "", :msg_id 1}</title></rect><use xlink:href="#ahead" x="20.0" y="0" /><text text-anchor="middle" x="10.0" y="-4" transform="rotate(180 10.0 0)" filter="url(#glow)" style="fill: #fff" >error </text><text text-anchor="middle" x="10.0" y="-4" transform="rotate(180 10.0 0)" >error </text></g><g transform="translate(600.0 130.0) rotate(2.862405226111748) " ><rect x="0" y="-2.5" height="5" width="396.4996878900157" fill="#81BFFC" ><title >c3 → n0 {:echo "Please echo 98", :type "echo", :msg_id 1}</title></rect><use xlink:href="#ahead" x="400.4996878900157" y="0" /><text text-anchor="middle" x="200.24984394500785" y="-4" transform="" filter="url(#glow)" style="fill: #fff" >echo {:echo "Please echo 98"}</text><text text-anchor="middle" x="200.24984394500785" y="-4" transform="" >echo {:echo "Please echo 98"}</text></g><g transform="translate(1000.0 170.0) rotate(90.0) " ><rect x="0" y="-2.5" height="5" width="16.0" fill="#FF1E90" ><title >n0 → n0 {:type "error", :code 13, :text "", :msg_id 2}</title></rect><use xlink:href="#ahead" x="20.0" y="0" /><text text-anchor="middle" x="10.0" y="-4" transform="rotate(180 10.0 0)" filter="url(#glow)" style="fill: #fff" >error </text><text text-anchor="middle" x="10.0" y="-4" transform="rotate(180 10.0 0)" >error </text></g></g></svg>